<svg width="800" height="800" viewBox="0 0 800 800" fill="none" xmlns="http://www.w3.org/2000/svg">
<path d="M710 575.069V559.912C710 557.668 707.627 556.218 705.63 557.243L693.689 563.371L399.237 696.441C398.451 696.796 397.549 696.796 396.763 696.44L87.7381 556.42C85.7522 555.52 83.5 556.973 83.5 559.153V575.063C83.5 576.242 84.1908 577.312 85.2655 577.797L396.761 718.44C397.548 718.796 398.451 718.795 399.238 718.437L708.243 577.8C709.313 577.313 710 576.245 710 575.069Z" fill="#FAA123" stroke="#F9E3B1" stroke-opacity="0.9"/>
<path d="M142.062 484.172L397.5 601L397 677L85.339 535.833C84.2272 535.329 83.5313 534.202 83.5791 532.983L84.4293 511.302C84.4728 510.193 85.125 509.199 86.1248 508.717L136.962 484.223C138.57 483.448 140.439 483.429 142.062 484.172Z" fill="#848C9A" stroke="#848C9A" stroke-opacity="0.9"/>
<path d="M646.37 359.782L488 437L579.113 483.046C580.368 483.68 581.691 484.166 582.984 484.718C585.935 485.98 591.364 489.093 593.5 495.5C595.657 501.971 592.903 507.408 591.185 509.953C590.464 511.02 589.4 511.78 588.233 512.326L398.5 601L398 677L707.256 535.299C708.319 534.812 709.003 533.751 709.007 532.582L709.494 389.882C709.497 388.731 708.843 387.68 707.808 387.175L651.63 359.782C649.97 358.973 648.03 358.973 646.37 359.782Z" fill="#333C4C" stroke="#333C4C" stroke-opacity="0.9"/>
<path d="M395.322 478.223L142.549 361.18C140.934 360.432 139.07 360.44 137.461 361.201L85.7398 385.677C84.6796 386.178 84.0091 387.252 84.0232 388.425L84.4542 424.198C84.4822 426.519 85.8467 428.616 87.9577 429.582L393.491 569.352C395.083 570.081 396.915 570.077 398.505 569.342L580.123 485.368C580.882 485.017 580.901 483.945 580.155 483.568L488 437L398.679 478.225C397.614 478.717 396.387 478.716 395.322 478.223Z" fill="#5B6778" fill-opacity="0.9" stroke="#5B6778" stroke-opacity="0.85"/>
<path d="M515.596 422.733L614.206 375.382C614.66 375.163 614.876 374.645 614.675 374.182C614.009 372.643 612.227 369.1 608.5 365C603.5 359.5 601.5 358.5 601.5 358.5L509.865 401.622C509.109 401.978 509.036 403.157 509.652 403.722C510.667 404.652 511.967 406.176 513 408.5C514.492 411.856 514.315 418.55 514.128 421.736C514.083 422.513 514.895 423.07 515.596 422.733Z" fill="#5B6778" stroke="#5B6778" stroke-opacity="0.9"/>
<path d="M399.959 121.879L708 265.5L599.382 321.251C596.619 322.669 593.354 322.723 590.546 321.397L400.1 231.464C398.144 230.54 395.872 230.573 393.943 231.551L363.5 247L600.5 358L402.974 452.638C399.192 454.45 394.798 454.471 390.999 452.696L87.9161 311.096C85.8277 310.12 84.483 308.035 84.4562 305.73L84.06 271.661C84.0235 268.519 85.8298 265.646 88.6776 264.318L394.042 121.88C395.917 121.005 398.083 121.005 399.959 121.879Z" fill="#333B4C" stroke="#333B4C" stroke-opacity="0.9"/>
</svg>
